<svg version="1.1" viewBox="0.0 0.0 960.0 200.0" fill="none" stroke="none" stroke-linecap="square" stroke-miterlimit="10" xmlns:xlink="http://www.w3.org/1999/xlink" xmlns="http://www.w3.org/2000/svg"><clipPath id="p.0"><path d="m0 0l960.0 0l0 200.0l-960.0 0l0 -200.0z" clip-rule="nonzero"/></clipPath><g clip-path="url(#p.0)"><path fill="#000000" fill-opacity="0.0" d="m0 0l960.0 0l0 200.0l-960.0 0z" fill-rule="evenodd"/><path fill="#3c78d8" d="m150.61705 34.984306c-7.3797913 0 -13.133759 1.4349556 -17.261917 4.3048706c-4.1281433 2.8699188 -6.99807 7.0192795 -8.609741 12.448082c-1.5975571 5.4288063 -2.396309 12.009819 -2.396309 19.743042l0 35.30845c0 7.549431 0.89066315 14.017342 2.6719894 19.40374c1.7813263 5.386383 4.6441803 9.493332 8.588547 12.320847c3.9585114 2.8133545 9.238861 4.220047 15.84108 4.220047c5.216736 0 9.29541 -1.2582397 12.236023 -3.7747192c2.9547272 -2.5164795 5.131912 -5.7256927 6.5315247 -9.627655l1.4208221 12.108795l9.245941 0l0 -52.252266l-26.6987 0l0 10.433487l13.423569 0l0 7.29496c0 5.301567 -0.39585876 9.733681 -1.1875458 13.296333c-0.77757263 3.5485153 -2.2125397 6.234642 -4.304886 8.058388c-2.0782013 1.8237305 -5.025879 2.735611 -8.843002 2.735611c-3.8171387 0 -6.771866 -0.8199768 -8.864227 -2.4599304c-2.0782166 -1.6540909 -3.4919739 -4.1705704 -4.2412567 -7.5494385c-0.7351532 -3.3930054 -1.1027222 -7.6130524 -1.1027222 -12.660141l0 -39.083168c0 -4.3402176 0.24032593 -8.220963 0.7210083 -11.642242c0.48068237 -3.4354134 1.6965027 -6.1498184 3.6474762 -8.143208c1.9509888 -2.0075264 5.096573 -3.0112915 9.436798 -3.0112915c4.0009155 0 6.9344482 0.72101593 8.800598 2.1630402c1.8661499 1.4278908 3.10318 3.5979996 3.7111053 6.5103264c0.60791016 2.8981895 0.91186523 6.651699 0.91186523 11.260529l0 3.26577l13.826492 0l0 -3.9231644c0 -6.941517 -0.91893005 -12.688419 -2.7568207 -17.240696c-1.8237305 -4.5664215 -4.757263 -7.959423 -8.800598 -10.179012c-4.02919 -2.2195892 -9.34491 -3.3293839 -15.947113 -3.3293839z" fill-rule="evenodd"/><path fill="#3c78d8" d="m213.55807 75.382256c2.3468323 0 4.05748 0.54429626 5.131912 1.6328812c1.0885773 1.0885925 1.802536 2.700264 2.1418304 4.8350296c0.3534546 2.1206284 0.5301666 4.743141 0.5301666 7.867531l0 6.764801l-16.010742 0l0 -4.02919c0 -4.340225 0.21206665 -7.747368 0.6361847 -10.221428c0.4382782 -2.4881973 1.2441101 -4.2483215 2.4175262 -5.2803574c1.1734009 -1.0461807 2.8911133 -1.5692673 5.153122 -1.5692673zm0.12722778 -10.285042c-5.7398376 0 -10.235565 1.1309967 -13.487183 3.3930054c-3.2516174 2.2478638 -5.534836 5.591385 -6.8496246 10.030563c-1.3006439 4.425049 -1.9509735 9.981087 -1.9509735 16.668129l0 17.198288c0 6.5174026 0.6291199 12.016899 1.8873444 16.498482c1.2582397 4.467453 3.4919586 7.8533783 6.701187 10.157806c3.2233582 2.2902832 7.7897644 3.4354095 13.699249 3.4354095c7.7332306 0 13.2044525 -2.170105 16.413666 -6.510315c3.209198 -4.340225 4.8138123 -10.292107 4.8138123 -17.85569l0 -2.8628464l-13.5507965 0l0 4.559349c0 2.5164795 -0.19792175 4.707794 -0.5937805 6.573944c-0.38171387 1.8661575 -1.1168671 3.3011093 -2.2054596 4.304878c-1.0885773 1.0037689 -2.6719818 1.5056458 -4.7501984 1.5056458c-1.993393 0 -3.6262665 -0.45240784 -4.898651 -1.3572083c-1.2582245 -0.91893005 -2.170105 -2.3326874 -2.735611 -4.241249c-0.5513611 -1.922699 -0.8270416 -4.4038315 -0.8270416 -7.443405l0 -15.098862l29.688782 0l0 -6.1286163c0 -6.8566895 -0.48068237 -12.7379 -1.4420319 -17.643616c-0.94721985 -4.919861 -2.919403 -8.680435 -5.9165497 -11.281738c-2.9971466 -2.601303 -7.6625214 -3.9019547 -13.99614 -3.9019547z" fill-rule="evenodd"/><path fill="#3c78d8" d="m251.46689 44.103l0 22.033321l-7.952347 0l0 9.245934l7.952347 0l0 49.11373c0 3.6474762 0.5443115 6.82135 1.6328888 9.521606c1.0885773 2.6861267 2.8204346 4.7714233 5.1955414 6.2558594c2.3892517 1.4703064 5.5419006 2.2054443 9.457977 2.2054443c1.7389221 0 3.3435364 -0.06361389 4.813843 -0.19085693c1.484436 -0.12722778 3.0960999 -0.3251648 4.835022 -0.59376526l0 -10.285049c-0.8765259 0.08482361 -1.774231 0.16964722 -2.6932068 0.25448608c-0.90478516 0.08482361 -1.7035828 0.12722778 -2.3963013 0.12722778c-2.6861267 0 -4.509857 -0.6291199 -5.471222 -1.8873596c-0.9613342 -1.2582397 -1.4420166 -3.3647308 -1.4420166 -6.3194656l0 -48.20186l12.129974 0l0 -9.245934l-12.129974 0l0 -22.033321z" fill-rule="evenodd"/><path fill="#3c78d8" d="m291.59662 44.103l0 22.033321l-7.952362 0l0 9.245934l7.952362 0l0 49.11373c0 3.6474762 0.5443115 6.82135 1.6328735 9.521606c1.0885925 2.6861267 2.8204346 4.7714233 5.1955566 6.2558594c2.3892212 1.4703064 5.5419006 2.2054443 9.457977 2.2054443c1.7389221 0 3.3435364 -0.06361389 4.813843 -0.19085693c1.484436 -0.12722778 3.0960999 -0.3251648 4.835022 -0.59376526l0 -10.285049c-0.8765259 0.08482361 -1.7742615 0.16964722 -2.6932068 0.25448608c-0.90478516 0.08482361 -1.7035522 0.12722778 -2.3963013 0.12722778c-2.6861267 0 -4.509857 -0.6291199 -5.471222 -1.8873596c-0.9613342 -1.2582397 -1.4420166 -3.3647308 -1.4420166 -6.3194656l0 -48.20186l12.129974 0l0 -9.245934l-12.129974 0l0 -22.033321z" fill-rule="evenodd"/><path fill="#3c78d8" d="m328.8635 40.328285l0 14.589916l13.932526 0l0 -14.589916zm0 25.808037l0 75.30348l13.932526 0l0 -75.30348z" fill-rule="evenodd"/><path fill="#3c78d8" d="m390.08548 65.09721c-3.647461 0 -6.9909973 0.8270416 -10.030548 2.4811325c-3.0395813 1.6399536 -5.8175964 3.633339 -8.334076 5.980171l0 -7.4221954l-13.932526 0l0 75.30348l13.932526 0l0 -60.71357c1.5692749 -1.3006516 3.1950684 -2.4033737 4.8774414 -3.3081741c1.6965027 -0.9189377 3.3293762 -1.3784103 4.898651 -1.3784103c2.4316406 0 4.036255 0.742218 4.8138123 2.2266617c0.7917175 1.4702988 1.187561 3.5485153 1.187561 6.234642l0 56.93885l13.932526 0l0 -60.96804c0 -2.431656 -0.3251648 -4.8209 -0.9754944 -7.1677246c-0.6503296 -2.3468246 -1.781311 -4.297806 -3.3930054 -5.852928c-1.5975342 -1.5692673 -3.9231567 -2.353897 -6.9768677 -2.353897z" fill-rule="evenodd"/><path fill="#3c78d8" d="m435.5775 75.00054c1.8237305 0 3.2940369 0.3887787 4.4108887 1.1663437c1.131012 0.777565 2.0004578 1.8873596 2.608368 3.3293839c0.60791016 1.427887 0.9967041 3.1880112 1.1663513 5.280365c0.18377686 2.0782166 0.27566528 4.4179688 0.27566528 7.0192795c0 2.601303 -0.113098145 4.9269257 -0.33929443 6.97686c-0.21206665 2.0358047 -0.6008301 3.7535095 -1.1663513 5.153122c-0.5654907 1.3854828 -1.4137268 2.4458008 -2.5447388 3.1809464c-1.1168518 0.73514557 -2.6366577 1.1027222 -4.5593567 1.1027222c-1.9085693 0 -3.4495544 -0.4099884 -4.6229553 -1.2299652c-1.1734009 -0.8199692 -2.064087 -1.9651108 -2.671997 -3.4354095c-0.60791016 -1.4844437 -1.0178833 -3.2233582 -1.22995 -5.2167435c-0.21206665 -2.0075302 -0.31811523 -4.1847076 -0.31811523 -6.5315323c0 -2.6861343 0.106048584 -5.0682983 0.31811523 -7.146515c0.21206665 -2.0923538 0.6432495 -3.852478 1.2935791 -5.280365c0.6503296 -1.4420242 1.5621948 -2.5306091 2.7355957 -3.2657623c1.1734314 -0.7351532 2.721466 -1.1027298 4.6441956 -1.1027298zm-6.929199 62.36016l11.615784 1.4707184c2.770935 0.26861572 4.891571 0.70687866 6.3618774 1.3147888c1.484436 0.60791016 2.5306091 1.4066772 3.1385193 2.3963165c0.60791016 1.0037689 0.91186523 2.2832184 0.91186523 3.8383331c0 2.5306244 -1.1946106 4.3826294 -3.5838623 5.5560455c-2.3892212 1.1734161 -6.0579224 1.7601166 -11.0060425 1.7601166c-5.032959 0 -8.531982 -0.5654907 -10.497101 -1.6965027c-1.9509888 -1.1309967 -2.9264832 -2.8274994 -2.9264832 -5.089508c0 -1.3854828 0.3463745 -2.664917 1.0391235 -3.8383331c0.70687866 -1.1734161 1.5763245 -2.3044128 2.608368 -3.3930054c0.7571106 -0.787796 1.536438 -1.560791 2.3379517 -2.3189697zm34.666992 -72.92088c-2.7709656 1.2158203 -5.3722534 2.735611 -7.8039246 4.559349c-1.9225464 1.4419174 -3.3059998 2.6938248 -4.1503906 3.7557297l0 0c-1.0906677 -1.487648 -2.3579712 -2.8031769 -3.801941 -3.9465866c-3.1243896 -2.4740677 -7.1677246 -3.7110977 -12.130005 -3.7110977c-4.778473 0 -8.793518 1.0178986 -12.045166 3.0537033c-3.2516174 2.0358047 -5.704468 5.0329514 -7.358551 8.991463c-1.6541138 3.9443665 -2.4811401 8.828873 -2.4811401 14.653534c0 5.131912 0.75634766 9.698334 2.2690735 13.699249c1.3652039 3.5647125 3.4029236 6.4399796 6.1131287 8.625778l0 0c-2.217926 2.0576782 -4.036499 3.953827 -5.4557495 5.6884537c-1.781311 2.1771774 -2.671997 4.827965 -2.671997 7.9523544c0 2.0782166 0.8270569 3.986786 2.4811401 5.7256927c1.2262878 1.2891693 2.93042 2.2208862 5.1124268 2.7951965l0 0c-1.4915771 0.6875458 -2.9341736 1.5371399 -4.3277893 2.5487823c-1.9085693 1.3854828 -3.4707642 3.053711 -4.6865845 5.0046844c-1.2158203 1.9651184 -1.8237305 4.2483215 -1.8237305 6.8496246c0 3.3930054 1.0603027 6.1286163 3.1809387 8.206833c2.1347656 2.0923462 5.0470886 3.6333313 8.736969 4.6229706c3.689911 1.0037537 7.839264 1.5056458 12.44809 1.5056458c6.079132 0 11.069672 -0.72102356 14.971619 -2.1630402c3.9161072 -1.4279022 6.84964 -3.5767975 8.800629 -6.4467163c1.9509583 -2.855774 2.9264526 -6.3689423 2.9264526 -10.53952c0 -5.640869 -1.434967 -9.981079 -4.3048706 -13.020645c-2.855774 -3.053711 -7.2384033 -4.835037 -13.147888 -5.343979l-12.638947 -1.1875534c-2.177185 -0.16965485 -3.7676392 -0.55843353 -4.7714233 -1.1663437c-0.989624 -0.60791016 -1.484436 -1.3925476 -1.484436 -2.353897c0 -1.215828 0.38879395 -2.4528656 1.1663513 -3.7110977c0.46270752 -0.73534393 0.8795166 -1.3741226 1.2504578 -1.9163208l0 0c2.2802734 0.71204376 4.860626 1.0680695 7.7409973 1.0680695c5.3015747 0 9.493347 -1.0815201 12.575317 -3.2445602c3.0820007 -2.1771774 5.294525 -5.237953 6.6375732 -9.18232c1.3572083 -3.9585037 2.035797 -8.496643 2.035797 -13.614426c0 -4.962265 -0.742218 -9.479202 -2.226654 -13.550812c-0.035095215 -0.09754944 -0.07067871 -0.19464111 -0.10671997 -0.29127502l0 0c0.36499023 -0.32022095 1.0932922 -0.7250061 2.1849365 -1.2143631c1.6540833 -0.7351532 3.4990234 -1.4491043 5.534851 -2.141838c2.0499268 -0.70687103 3.6828003 -1.1875534 4.8986206 -1.4420242l-3.647461 -9.118698z" fill-rule="evenodd"/><path fill="#3c78d8" d="m525.33264 34.984306c-7.6342773 0 -13.67099 2.1276932 -18.110168 6.383087c-4.425049 4.25539 -6.6375427 10.249695 -6.6375427 17.982918c0 5.301567 0.8199768 9.75489 2.4599 13.359955c1.6541138 3.6050644 4.2200623 6.9273834 7.697876 9.966949l17.728485 15.629021c3.2940063 2.9547424 6.022583 5.888275 8.185608 8.800606c2.177185 2.9123306 3.265747 6.757736 3.265747 11.536209c0 3.9867783 -0.97546387 7.047554 -2.9264526 9.18232c-1.9509888 2.1206284 -4.835022 3.1809464 -8.652161 3.1809464c-3.74646 0 -6.6658325 -1.1027374 -8.758179 -3.3081894c-2.078247 -2.2195816 -3.5767822 -5.061226 -4.4957275 -8.524918c-0.9048462 -3.477829 -1.484436 -7.089966 -1.7389526 -10.836403l-13.02063 3.5202408c0.33929443 6.0791245 1.5480652 11.423103 3.6262817 16.031937c2.0923462 4.6088333 5.1531067 8.213905 9.182312 10.815208c4.043335 2.6012878 9.111633 3.901947 15.204895 3.901947c4.94812 0 9.30957 -0.99668884 13.08429 -2.9900818c3.7747192 -1.993393 6.7506104 -4.8774414 8.927795 -8.652161c2.177185 -3.7888489 3.265808 -8.284584 3.265808 -13.48719c0 -6.6022263 -1.5268555 -12.313782 -4.5805664 -17.134666c-3.0395508 -4.8208923 -6.5527344 -8.970253 -10.539551 -12.448082l-17.855652 -15.629028c-2.4316406 -2.1771774 -4.1917725 -4.3048706 -5.2803955 -6.383087c-1.088562 -2.0923538 -1.6328735 -4.7431374 -1.6328735 -7.9523506c0 -3.8312645 1.0179443 -6.722389 3.053711 -8.673367c2.0499268 -1.9509773 4.8986816 -2.926464 8.546143 -2.926464c3.647461 0 6.4467163 0.89066315 8.397705 2.6719894c1.9650879 1.7813263 3.3364258 4.1281548 4.1140137 7.0404816c0.77752686 2.8981895 1.3006592 6.0862007 1.5692139 9.56403l12.511719 -3.3930016c-0.43823242 -4.594692 -1.286499 -8.609749 -2.5447388 -12.045166c-1.2582397 -3.4354134 -2.954773 -6.277054 -5.0895386 -8.524921c-2.1206055 -2.262001 -4.7713623 -3.9372978 -7.9523315 -5.0258865c-3.166809 -1.0885887 -6.835449 -1.6328812 -11.0060425 -1.6328812z" fill-rule="evenodd"/><path fill="#3c78d8" d="m567.6839 44.103l0 22.033321l-7.9523926 0l0 9.245934l7.9523926 0l0 49.11373c0 3.6474762 0.5442505 6.82135 1.6328735 9.521606c1.088562 2.6861267 2.8204346 4.7714233 5.1955566 6.2558594c2.3892212 1.4703064 5.54187 2.2054443 9.457947 2.2054443c1.7389526 0 3.343567 -0.06361389 4.813843 -0.19085693c1.484436 -0.12722778 3.0961304 -0.3251648 4.835022 -0.59376526l0 -10.285049c-0.8765259 0.08482361 -1.774231 0.16964722 -2.6931763 0.25448608c-0.90478516 0.08482361 -1.7035522 0.12722778 -2.3963013 0.12722778c-2.6861572 0 -4.5098877 -0.6291199 -5.4712524 -1.8873596c-0.9613037 -1.2582397 -1.4420166 -3.3647308 -1.4420166 -6.3194656l0 -48.20186l12.130005 0l0 -9.245934l-12.130005 0l0 -22.033321z" fill-rule="evenodd"/><path fill="#3c78d8" d="m629.95294 102.865585l0 21.375923c-0.33929443 0.60791016 -0.989624 1.4137497 -1.9509888 2.4175186c-0.9472046 0.9896164 -2.0286865 1.8802795 -3.2445068 2.6719818c-1.2158813 0.77757263 -2.5235596 1.1663513 -3.9231567 1.1663513c-2.163086 0 -3.8100586 -0.86946106 -4.941101 -2.6083755c-1.1309814 -1.7389145 -1.6964722 -4.128151 -1.6964722 -7.167717c0 -2.1630402 0.40997314 -4.0928116 1.2299194 -5.7893143c0.8341675 -1.6965027 1.9651489 -3.216278 3.3930054 -4.559349c1.4279175 -1.3572006 3.0961304 -2.6437073 5.0046997 -3.8595428c1.9227295 -1.215828 3.9655762 -2.431656 6.128601 -3.6474762zm-6.6375732 -37.76837c-7.6483765 0 -13.296326 1.979248 -16.943787 5.9377594c-3.647461 3.9443665 -5.5560303 10.087112 -5.725708 18.428246l13.805298 0.5089493l0 -3.7747116c0 -2.1771774 0.26153564 -4.064537 0.78460693 -5.662079c0.5231323 -1.6116714 1.3713379 -2.848709 2.5447998 -3.7110977c1.1734009 -0.87651825 2.7143555 -1.3147888 4.622925 -1.3147888c2.177185 0 3.8029785 0.50188446 4.8774414 1.5056458c1.088623 0.98963165 1.8025513 2.488205 2.1418457 4.495735c0.3534546 1.9933853 0.53015137 4.509865 0.53015137 7.549431l0 5.343979c-3.9867554 1.5692673 -7.782715 3.1809387 -11.387756 4.8350296c-3.6050415 1.6399536 -6.7789307 3.569725 -9.521606 5.7893143c-2.7285156 2.205452 -4.8774414 4.919853 -6.4467163 8.143211c-1.5551147 3.2092133 -2.3327026 7.160652 -2.3327026 11.854301c0 2.95475 0.6503296 5.7610474 1.9509888 8.4189c1.3006592 2.6437073 3.0748901 4.8138123 5.322754 6.510315c2.262024 1.682373 4.8704224 2.5235443 7.8251343 2.5235443c4.35437 0 7.7685547 -1.2794495 10.242615 -3.8383331c2.47406 -2.5588837 4.142334 -5.3157043 5.0046997 -8.270447c0.16967773 1.7389221 0.45239258 3.675766 0.8482666 5.8105164c0.395813 2.120636 0.7210083 3.8736877 0.97546387 5.2591705l12.766174 0c-0.1696167 -1.6540985 -0.3675537 -3.414215 -0.59375 -5.280365c-0.21209717 -1.8661499 -0.38171387 -3.8807526 -0.50897217 -6.0437927c-0.1272583 -2.1771774 -0.19085693 -4.439171 -0.19085693 -6.7860107l0 -34.39657c0 -7.733223 -1.5692749 -13.635635 -4.7077637 -17.707245c-3.1243896 -4.085739 -8.418884 -6.1286087 -15.883545 -6.1286087z" fill-rule="evenodd"/><path fill="#3c78d8" d="m688.3316 65.22445c-2.7850952 0 -5.5701904 0.7846298 -8.355286 2.353897c-2.770935 1.5551224 -5.541931 4.6371 -8.312866 9.245934l0 -10.687958l-13.953735 0l0 75.30348l13.953735 0l0 -54.987877c1.7247925 -2.8699112 3.4778442 -4.7996826 5.2591553 -5.7893066c1.781311 -1.0037613 3.760559 -1.5056458 5.937744 -1.5056458c1.385498 0 2.7497559 0.15550995 4.0928345 0.46653748c1.3571777 0.29688263 2.5518188 0.6644592 3.5838623 1.1027222l0 -15.37455c-0.50897217 -0.08482361 -0.9189453 -0.12723541 -1.2299805 -0.12723541z" fill-rule="evenodd"/><path fill="#3c78d8" d="m702.9262 44.103l0 22.033321l-7.9523315 0l0 9.245934l7.9523315 0l0 49.11373c0 3.6474762 0.5443115 6.82135 1.6328735 9.521606c1.088623 2.6861267 2.8204346 4.7714233 5.1955566 6.2558594c2.3892822 1.4703064 5.541931 2.2054443 9.458008 2.2054443c1.7388916 0 3.3435059 -0.06361389 4.813843 -0.19085693c1.484436 -0.12722778 3.0960693 -0.3251648 4.835022 -0.59376526l0 -10.285049c-0.8765259 0.08482361 -1.774231 0.16964722 -2.6932373 0.25448608c-0.90478516 0.08482361 -1.7035522 0.12722778 -2.3963013 0.12722778c-2.6860962 0 -4.5098267 -0.6291199 -5.4711914 -1.8873596c-0.96136475 -1.2582397 -1.4420166 -3.3647308 -1.4420166 -6.3194656l0 -48.20186l12.129944 0l0 -9.245934l-12.129944 0l0 -22.033321z" fill-rule="evenodd"/><path fill="#3c78d8" d="m759.99976 75.382256c2.3468628 0 4.057495 0.54429626 5.131897 1.6328812c1.088623 1.0885925 1.8025513 2.700264 2.1418457 4.8350296c0.3534546 2.1206284 0.53015137 4.743141 0.53015137 7.867531l0 6.764801l-16.010742 0l0 -4.02919c0 -4.340225 0.21209717 -7.747368 0.63623047 -10.221428c0.43823242 -2.4881973 1.2440796 -4.2483215 2.4174805 -5.2803574c1.1734009 -1.0461807 2.8911133 -1.5692673 5.153137 -1.5692673zm0.1272583 -10.285042c-5.739868 0 -10.235596 1.1309967 -13.487183 3.3930054c-3.251648 2.2478638 -5.534851 5.591385 -6.8496704 10.030563c-1.3005981 4.425049 -1.9509277 9.981087 -1.9509277 16.668129l0 17.198288c0 6.5174026 0.62908936 12.016899 1.8873291 16.498482c1.2582397 4.467453 3.4919434 7.8533783 6.701172 10.157806c3.2233887 2.2902832 7.789795 3.4354095 13.69928 3.4354095c7.7332153 0 13.204407 -2.170105 16.413635 -6.510315c3.2092285 -4.340225 4.813843 -10.292107 4.813843 -17.85569l0 -2.8628464l-13.550842 0l0 4.559349c0 2.5164795 -0.19787598 4.707794 -0.59375 6.573944c-0.38171387 1.8661575 -1.1168823 3.3011093 -2.2054443 4.304878c-1.088562 1.0037689 -2.671997 1.5056458 -4.750244 1.5056458c-1.9933472 0 -3.6262207 -0.45240784 -4.8986206 -1.3572083c-1.2582397 -0.91893005 -2.170105 -2.3326874 -2.7355957 -4.241249c-0.5513916 -1.922699 -0.8270874 -4.4038315 -0.8270874 -7.443405l0 -15.098862l29.688782 0l0 -6.1286163c0 -6.8566895 -0.48065186 -12.7379 -1.4420166 -17.643616c-0.9472046 -4.919861 -2.9193726 -8.680435 -5.916504 -11.281738c-2.9971924 -2.601303 -7.6625366 -3.9019547 -13.996155 -3.9019547z" fill-rule="evenodd"/><path fill="#3c78d8" d="m814.8524 76.03965c1.7388916 0 3.3435059 0.3251648 4.8137817 0.97548676c1.4703369 0.6503296 2.8133545 1.4066849 4.029236 2.2690735l0 49.389404c-1.4703369 0.94721985 -2.9476929 1.6611633 -4.432129 2.1418457c-1.4702759 0.4806671 -2.855774 0.7210083 -4.156433 0.7210083c-2.4316406 0 -4.255371 -0.7987671 -5.4711914 -2.3963165c-1.2158203 -1.6116714 -2.0216675 -3.8312607 -2.4175415 -6.65876c-0.38171387 -2.827507 -0.5725708 -5.973114 -0.5725708 -9.436798l0 -21.24868c0 -4.340225 0.55841064 -8.051323 1.675293 -11.133293c1.1309814 -3.0819778 3.3081665 -4.6229706 6.531555 -4.6229706zm8.843018 -40.143475l0 35.053967c-1.6399536 -1.6540833 -3.5061035 -3.0395584 -5.5984497 -4.1564255c-2.078247 -1.1310043 -4.3755493 -1.6965027 -6.89209 -1.6965027c-5.131897 0 -9.026794 1.4773712 -11.684631 4.4321136c-2.6437378 2.9406052 -4.446228 6.8708267 -5.407593 11.790688c-0.9472046 4.905716 -1.4208374 10.22142 -1.4208374 15.947113l0 14.58992c0 11.126221 1.5621948 19.014946 4.6865845 23.666191c3.1385498 4.6371155 7.8745728 6.955658 14.208191 6.955658c2.5164795 0 4.750244 -0.5372162 6.701233 -1.6116638c1.9650879 -1.0885925 3.7676392 -2.5023499 5.407593 -4.2412567l0 4.8138275l13.953735 0l0 -105.543625z" fill-rule="evenodd"/><path stroke="#3c78d8" stroke-width="1.0" stroke-linejoin="round" stroke-linecap="butt" d="m150.61705 34.984306c-7.3797913 0 -13.133759 1.4349556 -17.261917 4.3048706c-4.1281433 2.8699188 -6.99807 7.0192795 -8.609741 12.448082c-1.5975571 5.4288063 -2.396309 12.009819 -2.396309 19.743042l0 35.30845c0 7.549431 0.89066315 14.017342 2.6719894 19.40374c1.7813263 5.386383 4.6441803 9.493332 8.588547 12.320847c3.9585114 2.8133545 9.238861 4.220047 15.84108 4.220047c5.216736 0 9.29541 -1.2582397 12.236023 -3.7747192c2.9547272 -2.5164795 5.131912 -5.7256927 6.5315247 -9.627655l1.4208221 12.108795l9.245941 0l0 -52.252266l-26.6987 0l0 10.433487l13.423569 0l0 7.29496c0 5.301567 -0.39585876 9.733681 -1.1875458 13.296333c-0.77757263 3.5485153 -2.2125397 6.234642 -4.304886 8.058388c-2.0782013 1.8237305 -5.025879 2.735611 -8.843002 2.735611c-3.8171387 0 -6.771866 -0.8199768 -8.864227 -2.4599304c-2.0782166 -1.6540909 -3.4919739 -4.1705704 -4.2412567 -7.5494385c-0.7351532 -3.3930054 -1.1027222 -7.6130524 -1.1027222 -12.660141l0 -39.083168c0 -4.3402176 0.24032593 -8.220963 0.7210083 -11.642242c0.48068237 -3.4354134 1.6965027 -6.1498184 3.6474762 -8.143208c1.9509888 -2.0075264 5.096573 -3.0112915 9.436798 -3.0112915c4.0009155 0 6.9344482 0.72101593 8.800598 2.1630402c1.8661499 1.4278908 3.10318 3.5979996 3.7111053 6.5103264c0.60791016 2.8981895 0.91186523 6.651699 0.91186523 11.260529l0 3.26577l13.826492 0l0 -3.9231644c0 -6.941517 -0.91893005 -12.688419 -2.7568207 -17.240696c-1.8237305 -4.5664215 -4.757263 -7.959423 -8.800598 -10.179012c-4.02919 -2.2195892 -9.34491 -3.3293839 -15.947113 -3.3293839z" fill-rule="evenodd"/><path stroke="#3c78d8" stroke-width="1.0" stroke-linejoin="round" stroke-linecap="butt" d="m213.55807 75.382256c2.3468323 0 4.05748 0.54429626 5.131912 1.6328812c1.0885773 1.0885925 1.802536 2.700264 2.1418304 4.8350296c0.3534546 2.1206284 0.5301666 4.743141 0.5301666 7.867531l0 6.764801l-16.010742 0l0 -4.02919c0 -4.340225 0.21206665 -7.747368 0.6361847 -10.221428c0.4382782 -2.4881973 1.2441101 -4.2483215 2.4175262 -5.2803574c1.1734009 -1.0461807 2.8911133 -1.5692673 5.153122 -1.5692673zm0.12722778 -10.285042c-5.7398376 0 -10.235565 1.1309967 -13.487183 3.3930054c-3.2516174 2.2478638 -5.534836 5.591385 -6.8496246 10.030563c-1.3006439 4.425049 -1.9509735 9.981087 -1.9509735 16.668129l0 17.198288c0 6.5174026 0.6291199 12.016899 1.8873444 16.498482c1.2582397 4.467453 3.4919586 7.8533783 6.701187 10.157806c3.2233582 2.2902832 7.7897644 3.4354095 13.699249 3.4354095c7.7332306 0 13.2044525 -2.170105 16.413666 -6.510315c3.209198 -4.340225 4.8138123 -10.292107 4.8138123 -17.85569l0 -2.8628464l-13.5507965 0l0 4.559349c0 2.5164795 -0.19792175 4.707794 -0.5937805 6.573944c-0.38171387 1.8661575 -1.1168671 3.3011093 -2.2054596 4.304878c-1.0885773 1.0037689 -2.6719818 1.5056458 -4.7501984 1.5056458c-1.993393 0 -3.6262665 -0.45240784 -4.898651 -1.3572083c-1.2582245 -0.91893005 -2.170105 -2.3326874 -2.735611 -4.241249c-0.5513611 -1.922699 -0.8270416 -4.4038315 -0.8270416 -7.443405l0 -15.098862l29.688782 0l0 -6.1286163c0 -6.8566895 -0.48068237 -12.7379 -1.4420319 -17.643616c-0.94721985 -4.919861 -2.919403 -8.680435 -5.9165497 -11.281738c-2.9971466 -2.601303 -7.6625214 -3.9019547 -13.99614 -3.9019547z" fill-rule="evenodd"/><path stroke="#3c78d8" stroke-width="1.0" stroke-linejoin="round" stroke-linecap="butt" d="m251.46689 44.103l0 22.033321l-7.952347 0l0 9.245934l7.952347 0l0 49.11373c0 3.6474762 0.5443115 6.82135 1.6328888 9.521606c1.0885773 2.6861267 2.8204346 4.7714233 5.1955414 6.2558594c2.3892517 1.4703064 5.5419006 2.2054443 9.457977 2.2054443c1.7389221 0 3.3435364 -0.06361389 4.813843 -0.19085693c1.484436 -0.12722778 3.0960999 -0.3251648 4.835022 -0.59376526l0 -10.285049c-0.8765259 0.08482361 -1.774231 0.16964722 -2.6932068 0.25448608c-0.90478516 0.08482361 -1.7035828 0.12722778 -2.3963013 0.12722778c-2.6861267 0 -4.509857 -0.6291199 -5.471222 -1.8873596c-0.9613342 -1.2582397 -1.4420166 -3.3647308 -1.4420166 -6.3194656l0 -48.20186l12.129974 0l0 -9.245934l-12.129974 0l0 -22.033321z" fill-rule="evenodd"/><path stroke="#3c78d8" stroke-width="1.0" stroke-linejoin="round" stroke-linecap="butt" d="m291.59662 44.103l0 22.033321l-7.952362 0l0 9.245934l7.952362 0l0 49.11373c0 3.6474762 0.5443115 6.82135 1.6328735 9.521606c1.0885925 2.6861267 2.8204346 4.7714233 5.1955566 6.2558594c2.3892212 1.4703064 5.5419006 2.2054443 9.457977 2.2054443c1.7389221 0 3.3435364 -0.06361389 4.813843 -0.19085693c1.484436 -0.12722778 3.0960999 -0.3251648 4.835022 -0.59376526l0 -10.285049c-0.8765259 0.08482361 -1.7742615 0.16964722 -2.6932068 0.25448608c-0.90478516 0.08482361 -1.7035522 0.12722778 -2.3963013 0.12722778c-2.6861267 0 -4.509857 -0.6291199 -5.471222 -1.8873596c-0.9613342 -1.2582397 -1.4420166 -3.3647308 -1.4420166 -6.3194656l0 -48.20186l12.129974 0l0 -9.245934l-12.129974 0l0 -22.033321z" fill-rule="evenodd"/><path stroke="#3c78d8" stroke-width="1.0" stroke-linejoin="round" stroke-linecap="butt" d="m328.8635 40.328285l0 14.589916l13.932526 0l0 -14.589916zm0 25.808037l0 75.30348l13.932526 0l0 -75.30348z" fill-rule="evenodd"/><path stroke="#3c78d8" stroke-width="1.0" stroke-linejoin="round" stroke-linecap="butt" d="m390.08548 65.09721c-3.647461 0 -6.9909973 0.8270416 -10.030548 2.4811325c-3.0395813 1.6399536 -5.8175964 3.633339 -8.334076 5.980171l0 -7.4221954l-13.932526 0l0 75.30348l13.932526 0l0 -60.71357c1.5692749 -1.3006516 3.1950684 -2.4033737 4.8774414 -3.3081741c1.6965027 -0.9189377 3.3293762 -1.3784103 4.898651 -1.3784103c2.4316406 0 4.036255 0.742218 4.8138123 2.2266617c0.7917175 1.4702988 1.187561 3.5485153 1.187561 6.234642l0 56.93885l13.932526 0l0 -60.96804c0 -2.431656 -0.3251648 -4.8209 -0.9754944 -7.1677246c-0.6503296 -2.3468246 -1.781311 -4.297806 -3.3930054 -5.852928c-1.5975342 -1.5692673 -3.9231567 -2.353897 -6.9768677 -2.353897z" fill-rule="evenodd"/><path stroke="#3c78d8" stroke-width="1.0" stroke-linejoin="round" stroke-linecap="butt" d="m435.5775 75.00054c1.8237305 0 3.2940369 0.3887787 4.4108887 1.1663437c1.131012 0.777565 2.0004578 1.8873596 2.608368 3.3293839c0.60791016 1.427887 0.9967041 3.1880112 1.1663513 5.280365c0.18377686 2.0782166 0.27566528 4.4179688 0.27566528 7.0192795c0 2.601303 -0.113098145 4.9269257 -0.33929443 6.97686c-0.21206665 2.0358047 -0.6008301 3.7535095 -1.1663513 5.153122c-0.5654907 1.3854828 -1.4137268 2.4458008 -2.5447388 3.1809464c-1.1168518 0.73514557 -2.6366577 1.1027222 -4.5593567 1.1027222c-1.9085693 0 -3.4495544 -0.4099884 -4.6229553 -1.2299652c-1.1734009 -0.8199692 -2.064087 -1.9651108 -2.671997 -3.4354095c-0.60791016 -1.4844437 -1.0178833 -3.2233582 -1.22995 -5.2167435c-0.21206665 -2.0075302 -0.31811523 -4.1847076 -0.31811523 -6.5315323c0 -2.6861343 0.106048584 -5.0682983 0.31811523 -7.146515c0.21206665 -2.0923538 0.6432495 -3.852478 1.2935791 -5.280365c0.6503296 -1.4420242 1.5621948 -2.5306091 2.7355957 -3.2657623c1.1734314 -0.7351532 2.721466 -1.1027298 4.6441956 -1.1027298zm-6.929199 62.36016l11.615784 1.4707184c2.770935 0.26861572 4.891571 0.70687866 6.3618774 1.3147888c1.484436 0.60791016 2.5306091 1.4066772 3.1385193 2.3963165c0.60791016 1.0037689 0.91186523 2.2832184 0.91186523 3.8383331c0 2.5306244 -1.1946106 4.3826294 -3.5838623 5.5560455c-2.3892212 1.1734161 -6.0579224 1.7601166 -11.0060425 1.7601166c-5.032959 0 -8.531982 -0.5654907 -10.497101 -1.6965027c-1.9509888 -1.1309967 -2.9264832 -2.8274994 -2.9264832 -5.089508c0 -1.3854828 0.3463745 -2.664917 1.0391235 -3.8383331c0.70687866 -1.1734161 1.5763245 -2.3044128 2.608368 -3.3930054c0.7571106 -0.787796 1.536438 -1.560791 2.3379517 -2.3189697zm34.666992 -72.92088c-2.7709656 1.2158203 -5.3722534 2.735611 -7.8039246 4.559349c-1.9225464 1.4419174 -3.3059998 2.6938248 -4.1503906 3.7557297l0 0c-1.0906677 -1.487648 -2.3579712 -2.8031769 -3.801941 -3.9465866c-3.1243896 -2.4740677 -7.1677246 -3.7110977 -12.130005 -3.7110977c-4.778473 0 -8.793518 1.0178986 -12.045166 3.0537033c-3.2516174 2.0358047 -5.704468 5.0329514 -7.358551 8.991463c-1.6541138 3.9443665 -2.4811401 8.828873 -2.4811401 14.653534c0 5.131912 0.75634766 9.698334 2.2690735 13.699249c1.3652039 3.5647125 3.4029236 6.4399796 6.1131287 8.625778l0 0c-2.217926 2.0576782 -4.036499 3.953827 -5.4557495 5.6884537c-1.781311 2.1771774 -2.671997 4.827965 -2.671997 7.9523544c0 2.0782166 0.8270569 3.986786 2.4811401 5.7256927c1.2262878 1.2891693 2.93042 2.2208862 5.1124268 2.7951965l0 0c-1.4915771 0.6875458 -2.9341736 1.5371399 -4.3277893 2.5487823c-1.9085693 1.3854828 -3.4707642 3.053711 -4.6865845 5.0046844c-1.2158203 1.9651184 -1.8237305 4.2483215 -1.8237305 6.8496246c0 3.3930054 1.0603027 6.1286163 3.1809387 8.206833c2.1347656 2.0923462 5.0470886 3.6333313 8.736969 4.6229706c3.689911 1.0037537 7.839264 1.5056458 12.44809 1.5056458c6.079132 0 11.069672 -0.72102356 14.971619 -2.1630402c3.9161072 -1.4279022 6.84964 -3.5767975 8.800629 -6.4467163c1.9509583 -2.855774 2.9264526 -6.3689423 2.9264526 -10.53952c0 -5.640869 -1.434967 -9.981079 -4.3048706 -13.020645c-2.855774 -3.053711 -7.2384033 -4.835037 -13.147888 -5.343979l-12.638947 -1.1875534c-2.177185 -0.16965485 -3.7676392 -0.55843353 -4.7714233 -1.1663437c-0.989624 -0.60791016 -1.484436 -1.3925476 -1.484436 -2.353897c0 -1.215828 0.38879395 -2.4528656 1.1663513 -3.7110977c0.46270752 -0.73534393 0.8795166 -1.3741226 1.2504578 -1.9163208l0 0c2.2802734 0.71204376 4.860626 1.0680695 7.7409973 1.0680695c5.3015747 0 9.493347 -1.0815201 12.575317 -3.2445602c3.0820007 -2.1771774 5.294525 -5.237953 6.6375732 -9.18232c1.3572083 -3.9585037 2.035797 -8.496643 2.035797 -13.614426c0 -4.962265 -0.742218 -9.479202 -2.226654 -13.550812c-0.035095215 -0.09754944 -0.07067871 -0.19464111 -0.10671997 -0.29127502l0 0c0.36499023 -0.32022095 1.0932922 -0.7250061 2.1849365 -1.2143631c1.6540833 -0.7351532 3.4990234 -1.4491043 5.534851 -2.141838c2.0499268 -0.70687103 3.6828003 -1.1875534 4.8986206 -1.4420242l-3.647461 -9.118698z" fill-rule="evenodd"/><path stroke="#3c78d8" stroke-width="1.0" stroke-linejoin="round" stroke-linecap="butt" d="m525.33264 34.984306c-7.6342773 0 -13.67099 2.1276932 -18.110168 6.383087c-4.425049 4.25539 -6.6375427 10.249695 -6.6375427 17.982918c0 5.301567 0.8199768 9.75489 2.4599 13.359955c1.6541138 3.6050644 4.2200623 6.9273834 7.697876 9.966949l17.728485 15.629021c3.2940063 2.9547424 6.022583 5.888275 8.185608 8.800606c2.177185 2.9123306 3.265747 6.757736 3.265747 11.536209c0 3.9867783 -0.97546387 7.047554 -2.9264526 9.18232c-1.9509888 2.1206284 -4.835022 3.1809464 -8.652161 3.1809464c-3.74646 0 -6.6658325 -1.1027374 -8.758179 -3.3081894c-2.078247 -2.2195816 -3.5767822 -5.061226 -4.4957275 -8.524918c-0.9048462 -3.477829 -1.484436 -7.089966 -1.7389526 -10.836403l-13.02063 3.5202408c0.33929443 6.0791245 1.5480652 11.423103 3.6262817 16.031937c2.0923462 4.6088333 5.1531067 8.213905 9.182312 10.815208c4.043335 2.6012878 9.111633 3.901947 15.204895 3.901947c4.94812 0 9.30957 -0.99668884 13.08429 -2.9900818c3.7747192 -1.993393 6.7506104 -4.8774414 8.927795 -8.652161c2.177185 -3.7888489 3.265808 -8.284584 3.265808 -13.48719c0 -6.6022263 -1.5268555 -12.313782 -4.5805664 -17.134666c-3.0395508 -4.8208923 -6.5527344 -8.970253 -10.539551 -12.448082l-17.855652 -15.629028c-2.4316406 -2.1771774 -4.1917725 -4.3048706 -5.2803955 -6.383087c-1.088562 -2.0923538 -1.6328735 -4.7431374 -1.6328735 -7.9523506c0 -3.8312645 1.0179443 -6.722389 3.053711 -8.673367c2.0499268 -1.9509773 4.8986816 -2.926464 8.546143 -2.926464c3.647461 0 6.4467163 0.89066315 8.397705 2.6719894c1.9650879 1.7813263 3.3364258 4.1281548 4.1140137 7.0404816c0.77752686 2.8981895 1.3006592 6.0862007 1.5692139 9.56403l12.511719 -3.3930016c-0.43823242 -4.594692 -1.286499 -8.609749 -2.5447388 -12.045166c-1.2582397 -3.4354134 -2.954773 -6.277054 -5.0895386 -8.524921c-2.1206055 -2.262001 -4.7713623 -3.9372978 -7.9523315 -5.0258865c-3.166809 -1.0885887 -6.835449 -1.6328812 -11.0060425 -1.6328812z" fill-rule="evenodd"/><path stroke="#3c78d8" stroke-width="1.0" stroke-linejoin="round" stroke-linecap="butt" d="m567.6839 44.103l0 22.033321l-7.9523926 0l0 9.245934l7.9523926 0l0 49.11373c0 3.6474762 0.5442505 6.82135 1.6328735 9.521606c1.088562 2.6861267 2.8204346 4.7714233 5.1955566 6.2558594c2.3892212 1.4703064 5.54187 2.2054443 9.457947 2.2054443c1.7389526 0 3.343567 -0.06361389 4.813843 -0.19085693c1.484436 -0.12722778 3.0961304 -0.3251648 4.835022 -0.59376526l0 -10.285049c-0.8765259 0.08482361 -1.774231 0.16964722 -2.6931763 0.25448608c-0.90478516 0.08482361 -1.7035522 0.12722778 -2.3963013 0.12722778c-2.6861572 0 -4.5098877 -0.6291199 -5.4712524 -1.8873596c-0.9613037 -1.2582397 -1.4420166 -3.3647308 -1.4420166 -6.3194656l0 -48.20186l12.130005 0l0 -9.245934l-12.130005 0l0 -22.033321z" fill-rule="evenodd"/><path stroke="#3c78d8" stroke-width="1.0" stroke-linejoin="round" stroke-linecap="butt" d="m629.95294 102.865585l0 21.375923c-0.33929443 0.60791016 -0.989624 1.4137497 -1.9509888 2.4175186c-0.9472046 0.9896164 -2.0286865 1.8802795 -3.2445068 2.6719818c-1.2158813 0.77757263 -2.5235596 1.1663513 -3.9231567 1.1663513c-2.163086 0 -3.8100586 -0.86946106 -4.941101 -2.6083755c-1.1309814 -1.7389145 -1.6964722 -4.128151 -1.6964722 -7.167717c0 -2.1630402 0.40997314 -4.0928116 1.2299194 -5.7893143c0.8341675 -1.6965027 1.9651489 -3.216278 3.3930054 -4.559349c1.4279175 -1.3572006 3.0961304 -2.6437073 5.0046997 -3.8595428c1.9227295 -1.215828 3.9655762 -2.431656 6.128601 -3.6474762zm-6.6375732 -37.76837c-7.6483765 0 -13.296326 1.979248 -16.943787 5.9377594c-3.647461 3.9443665 -5.5560303 10.087112 -5.725708 18.428246l13.805298 0.5089493l0 -3.7747116c0 -2.1771774 0.26153564 -4.064537 0.78460693 -5.662079c0.5231323 -1.6116714 1.3713379 -2.848709 2.5447998 -3.7110977c1.1734009 -0.87651825 2.7143555 -1.3147888 4.622925 -1.3147888c2.177185 0 3.8029785 0.50188446 4.8774414 1.5056458c1.088623 0.98963165 1.8025513 2.488205 2.1418457 4.495735c0.3534546 1.9933853 0.53015137 4.509865 0.53015137 7.549431l0 5.343979c-3.9867554 1.5692673 -7.782715 3.1809387 -11.387756 4.8350296c-3.6050415 1.6399536 -6.7789307 3.569725 -9.521606 5.7893143c-2.7285156 2.205452 -4.8774414 4.919853 -6.4467163 8.143211c-1.5551147 3.2092133 -2.3327026 7.160652 -2.3327026 11.854301c0 2.95475 0.6503296 5.7610474 1.9509888 8.4189c1.3006592 2.6437073 3.0748901 4.8138123 5.322754 6.510315c2.262024 1.682373 4.8704224 2.5235443 7.8251343 2.5235443c4.35437 0 7.7685547 -1.2794495 10.242615 -3.8383331c2.47406 -2.5588837 4.142334 -5.3157043 5.0046997 -8.270447c0.16967773 1.7389221 0.45239258 3.675766 0.8482666 5.8105164c0.395813 2.120636 0.7210083 3.8736877 0.97546387 5.2591705l12.766174 0c-0.1696167 -1.6540985 -0.3675537 -3.414215 -0.59375 -5.280365c-0.21209717 -1.8661499 -0.38171387 -3.8807526 -0.50897217 -6.0437927c-0.1272583 -2.1771774 -0.19085693 -4.439171 -0.19085693 -6.7860107l0 -34.39657c0 -7.733223 -1.5692749 -13.635635 -4.7077637 -17.707245c-3.1243896 -4.085739 -8.418884 -6.1286087 -15.883545 -6.1286087z" fill-rule="evenodd"/><path stroke="#3c78d8" stroke-width="1.0" stroke-linejoin="round" stroke-linecap="butt" d="m688.3316 65.22445c-2.7850952 0 -5.5701904 0.7846298 -8.355286 2.353897c-2.770935 1.5551224 -5.541931 4.6371 -8.312866 9.245934l0 -10.687958l-13.953735 0l0 75.30348l13.953735 0l0 -54.987877c1.7247925 -2.8699112 3.4778442 -4.7996826 5.2591553 -5.7893066c1.781311 -1.0037613 3.760559 -1.5056458 5.937744 -1.5056458c1.385498 0 2.7497559 0.15550995 4.0928345 0.46653748c1.3571777 0.29688263 2.5518188 0.6644592 3.5838623 1.1027222l0 -15.37455c-0.50897217 -0.08482361 -0.9189453 -0.12723541 -1.2299805 -0.12723541z" fill-rule="evenodd"/><path stroke="#3c78d8" stroke-width="1.0" stroke-linejoin="round" stroke-linecap="butt" d="m702.9262 44.103l0 22.033321l-7.9523315 0l0 9.245934l7.9523315 0l0 49.11373c0 3.6474762 0.5443115 6.82135 1.6328735 9.521606c1.088623 2.6861267 2.8204346 4.7714233 5.1955566 6.2558594c2.3892822 1.4703064 5.541931 2.2054443 9.458008 2.2054443c1.7388916 0 3.3435059 -0.06361389 4.813843 -0.19085693c1.484436 -0.12722778 3.0960693 -0.3251648 4.835022 -0.59376526l0 -10.285049c-0.8765259 0.08482361 -1.774231 0.16964722 -2.6932373 0.25448608c-0.90478516 0.08482361 -1.7035522 0.12722778 -2.3963013 0.12722778c-2.6860962 0 -4.5098267 -0.6291199 -5.4711914 -1.8873596c-0.96136475 -1.2582397 -1.4420166 -3.3647308 -1.4420166 -6.3194656l0 -48.20186l12.129944 0l0 -9.245934l-12.129944 0l0 -22.033321z" fill-rule="evenodd"/><path stroke="#3c78d8" stroke-width="1.0" stroke-linejoin="round" stroke-linecap="butt" d="m759.99976 75.382256c2.3468628 0 4.057495 0.54429626 5.131897 1.6328812c1.088623 1.0885925 1.8025513 2.700264 2.1418457 4.8350296c0.3534546 2.1206284 0.53015137 4.743141 0.53015137 7.867531l0 6.764801l-16.010742 0l0 -4.02919c0 -4.340225 0.21209717 -7.747368 0.63623047 -10.221428c0.43823242 -2.4881973 1.2440796 -4.2483215 2.4174805 -5.2803574c1.1734009 -1.0461807 2.8911133 -1.5692673 5.153137 -1.5692673zm0.1272583 -10.285042c-5.739868 0 -10.235596 1.1309967 -13.487183 3.3930054c-3.251648 2.2478638 -5.534851 5.591385 -6.8496704 10.030563c-1.3005981 4.425049 -1.9509277 9.981087 -1.9509277 16.668129l0 17.198288c0 6.5174026 0.62908936 12.016899 1.8873291 16.498482c1.2582397 4.467453 3.4919434 7.8533783 6.701172 10.157806c3.2233887 2.2902832 7.789795 3.4354095 13.69928 3.4354095c7.7332153 0 13.204407 -2.170105 16.413635 -6.510315c3.2092285 -4.340225 4.813843 -10.292107 4.813843 -17.85569l0 -2.8628464l-13.550842 0l0 4.559349c0 2.5164795 -0.19787598 4.707794 -0.59375 6.573944c-0.38171387 1.8661575 -1.1168823 3.3011093 -2.2054443 4.304878c-1.088562 1.0037689 -2.671997 1.5056458 -4.750244 1.5056458c-1.9933472 0 -3.6262207 -0.45240784 -4.8986206 -1.3572083c-1.2582397 -0.91893005 -2.170105 -2.3326874 -2.7355957 -4.241249c-0.5513916 -1.922699 -0.8270874 -4.4038315 -0.8270874 -7.443405l0 -15.098862l29.688782 0l0 -6.1286163c0 -6.8566895 -0.48065186 -12.7379 -1.4420166 -17.643616c-0.9472046 -4.919861 -2.9193726 -8.680435 -5.916504 -11.281738c-2.9971924 -2.601303 -7.6625366 -3.9019547 -13.996155 -3.9019547z" fill-rule="evenodd"/><path stroke="#3c78d8" stroke-width="1.0" stroke-linejoin="round" stroke-linecap="butt" d="m814.8524 76.03965c1.7388916 0 3.3435059 0.3251648 4.8137817 0.97548676c1.4703369 0.6503296 2.8133545 1.4066849 4.029236 2.2690735l0 49.389404c-1.4703369 0.94721985 -2.9476929 1.6611633 -4.432129 2.1418457c-1.4702759 0.4806671 -2.855774 0.7210083 -4.156433 0.7210083c-2.4316406 0 -4.255371 -0.7987671 -5.4711914 -2.3963165c-1.2158203 -1.6116714 -2.0216675 -3.8312607 -2.4175415 -6.65876c-0.38171387 -2.827507 -0.5725708 -5.973114 -0.5725708 -9.436798l0 -21.24868c0 -4.340225 0.55841064 -8.051323 1.675293 -11.133293c1.1309814 -3.0819778 3.3081665 -4.6229706 6.531555 -4.6229706zm8.843018 -40.143475l0 35.053967c-1.6399536 -1.6540833 -3.5061035 -3.0395584 -5.5984497 -4.1564255c-2.078247 -1.1310043 -4.3755493 -1.6965027 -6.89209 -1.6965027c-5.131897 0 -9.026794 1.4773712 -11.684631 4.4321136c-2.6437378 2.9406052 -4.446228 6.8708267 -5.407593 11.790688c-0.9472046 4.905716 -1.4208374 10.22142 -1.4208374 15.947113l0 14.58992c0 11.126221 1.5621948 19.014946 4.6865845 23.666191c3.1385498 4.6371155 7.8745728 6.955658 14.208191 6.955658c2.5164795 0 4.750244 -0.5372162 6.701233 -1.6116638c1.9650879 -1.0885925 3.7676392 -2.5023499 5.407593 -4.2412567l0 4.8138275l13.953735 0l0 -105.543625z" fill-rule="evenodd"/><path fill="#000000" fill-opacity="0.0" d="m121.42782 147.62004l717.44885 0" fill-rule="evenodd"/><path stroke="#3c78d8" stroke-width="3.0" stroke-linejoin="round" stroke-linecap="butt" d="m121.42782 147.62004l717.44885 0" fill-rule="evenodd"/></g></svg>