<svg version="1.1" viewBox="0.0 0.0 960.0 200.0" fill="none" stroke="none" stroke-linecap="square" stroke-miterlimit="10" xmlns:xlink="http://www.w3.org/1999/xlink" xmlns="http://www.w3.org/2000/svg"><clipPath id="p.0"><path d="m0 0l960.0 0l0 200.0l-960.0 0l0 -200.0z" clip-rule="nonzero"/></clipPath><g clip-path="url(#p.0)"><path fill="#000000" fill-opacity="0.0" d="m0 0l960.0 0l0 200.0l-960.0 0z" fill-rule="evenodd"/><path fill="#3c78d8" d="m159.1767 35.440998l-1.9509735 105.543625l11.981537 0l1.1663513 -76.61826l17.72844 76.61826l8.334076 0l17.855682 -76.61826l1.166336 76.61826l11.854309 0l-1.9509735 -105.543625l-14.335449 0l-18.746338 85.609726l-18.64032 -85.609726z" fill-rule="evenodd"/><path fill="#3c78d8" d="m263.02463 74.92708c2.6861267 0 4.5734863 0.80583954 5.662079 2.4175186c1.088562 1.5975342 1.7389221 3.6616135 1.9509583 6.19223c0.21206665 2.5164795 0.31811523 5.202606 0.31811523 8.05838l0 23.581375c0 2.7850952 -0.106048584 5.464157 -0.31811523 8.037178c-0.21203613 2.5588913 -0.86239624 4.6229706 -1.9509583 6.19223c-1.0885925 1.55513 -2.9759521 2.3326874 -5.662079 2.3326874c-2.7002563 0 -4.6158752 -0.7775574 -5.746887 -2.3326874c-1.131012 -1.5692596 -1.8025513 -3.633339 -2.0146027 -6.19223c-0.21206665 -2.5730286 -0.31809998 -5.2520905 -0.31809998 -8.037178l0 -23.581375c0 -2.855774 0.106033325 -5.5419083 0.31809998 -8.05838c0.21205139 -2.5306168 0.8835907 -4.5946884 2.0146027 -6.19223c1.1309814 -1.6116791 3.0466003 -2.4175186 5.746887 -2.4175186zm0 -10.285042c-5.5701904 0 -9.959885 1.1309967 -13.169098 3.3930054c-3.2092133 2.2478638 -5.4924164 5.457077 -6.8496246 9.627647c-1.3430634 4.1705704 -2.0146027 9.076286 -2.0146027 14.717155l0 21.884872c0 5.654999 0.6715393 10.567787 2.0146027 14.738365c1.3572083 4.1705627 3.6404114 7.386841 6.8496246 9.6488495c3.2092133 2.2478638 7.5989075 3.3717957 13.169098 3.3717957c5.5560303 0 9.91748 -1.1239319 13.084259 -3.3717957c3.166809 -2.2620087 5.4217224 -5.4782867 6.764801 -9.6488495c1.3572083 -4.1705704 2.0358276 -9.083351 2.0358276 -14.738365l0 -21.884872c0 -5.640869 -0.6786194 -10.546585 -2.0358276 -14.717155c-1.3430481 -4.1705704 -3.5979614 -7.3797836 -6.764801 -9.627647c-3.1667786 -2.2620087 -7.5282288 -3.3930054 -13.084259 -3.3930054z" fill-rule="evenodd"/><path fill="#3c78d8" d="m318.39844 75.58447c1.7389221 0 3.3435059 0.3251648 4.8138123 0.97548676c1.4703064 0.6503296 2.813385 1.4066849 4.0292053 2.2690735l0 49.389412c-1.4703064 0.9472046 -2.9476929 1.6611481 -4.432129 2.1418304c-1.4703064 0.4806671 -2.855774 0.7210083 -4.156433 0.7210083c-2.4316406 0 -4.255371 -0.7987671 -5.4711914 -2.3963013c-1.2158508 -1.6116791 -2.0216675 -3.8312607 -2.4175415 -6.6587677c-0.38171387 -2.827507 -0.5725708 -5.973114 -0.5725708 -9.436798l0 -21.24868c0 -4.3402176 0.55844116 -8.051315 1.6753235 -11.133293c1.1309814 -3.0819778 3.3081665 -4.6229706 6.5315247 -4.6229706zm8.843018 -40.143475l0 35.053967c-1.6399536 -1.6540833 -3.5061035 -3.0395584 -5.5984497 -4.1564255c-2.0782166 -1.1310043 -4.37558 -1.6965027 -6.8920593 -1.6965027c-5.1319275 0 -9.026794 1.4773712 -11.684662 4.4321136c-2.6437073 2.9406052 -4.4462585 6.8708267 -5.407593 11.790688c-0.9472046 4.905716 -1.4208069 10.22142 -1.4208069 15.947113l0 14.58992c0 11.126221 1.5621948 19.014954 4.6865845 23.666199c3.1385193 4.6371 7.8746033 6.955658 14.208191 6.955658c2.5164795 0 4.7502136 -0.53723145 6.701172 -1.6116791c1.9651184 -1.0885925 3.7676697 -2.5023346 5.4076233 -4.2412567l0 4.8138275l13.953705 0l0 -105.543625z" fill-rule="evenodd"/><path fill="#3c78d8" d="m375.98718 75.58447c1.7388916 0 3.3435059 0.3251648 4.8138123 0.97548676c1.4703064 0.6503296 2.813385 1.4066849 4.0292053 2.2690735l0 49.389412c-1.4703064 0.9472046 -2.9476929 1.6611481 -4.432129 2.1418304c-1.4703064 0.4806671 -2.855774 0.7210083 -4.156433 0.7210083c-2.4316406 0 -4.255371 -0.7987671 -5.471222 -2.3963013c-1.2158203 -1.6116791 -2.0216675 -3.8312607 -2.417511 -6.6587677c-0.38171387 -2.827507 -0.5725708 -5.973114 -0.5725708 -9.436798l0 -21.24868c0 -4.3402176 0.55844116 -8.051315 1.675293 -11.133293c1.131012 -3.0819778 3.308197 -4.6229706 6.531555 -4.6229706zm8.843018 -40.143475l0 35.053967c-1.6399536 -1.6540833 -3.506134 -3.0395584 -5.59848 -4.1564255c-2.0782166 -1.1310043 -4.3755493 -1.6965027 -6.892029 -1.6965027c-5.1319275 0 -9.026794 1.4773712 -11.684662 4.4321136c-2.6437073 2.9406052 -4.446228 6.8708267 -5.407593 11.790688c-0.9472046 4.905716 -1.4208069 10.22142 -1.4208069 15.947113l0 14.58992c0 11.126221 1.5621643 19.014954 4.6865845 23.666199c3.1385193 4.6371 7.8746033 6.955658 14.208191 6.955658c2.5164795 0 4.7502136 -0.53723145 6.701172 -1.6116791c1.9651184 -1.0885925 3.7676697 -2.5023346 5.4076233 -4.2412567l0 4.8138275l13.953705 0l0 -105.543625z" fill-rule="evenodd"/><path fill="#3c78d8" d="m413.76926 39.873108l0 14.589916l13.932526 0l0 -14.589916zm0 25.808037l0 75.303474l13.932526 0l0 -75.303474z" fill-rule="evenodd"/><path fill="#3c78d8" d="m474.99124 64.64204c-3.647461 0 -6.9909973 0.8270416 -10.030548 2.4811325c-3.0395813 1.6399536 -5.8175964 3.633339 -8.334076 5.980171l0 -7.4221954l-13.932526 0l0 75.303474l13.932526 0l0 -60.713562c1.5692749 -1.3006439 3.1950684 -2.4033737 4.8774414 -3.3081741c1.6965027 -0.9189377 3.3293762 -1.3784103 4.898651 -1.3784103c2.4316406 0 4.036255 0.742218 4.8138123 2.2266617c0.7917175 1.4702988 1.187561 3.5485153 1.187561 6.234642l0 56.938843l13.932526 0l0 -60.968033c0 -2.431656 -0.3251648 -4.8209 -0.9754944 -7.1677246c-0.6503296 -2.3468246 -1.7813416 -4.297806 -3.3930054 -5.852928c-1.5975342 -1.5692673 -3.9231567 -2.353897 -6.9768677 -2.353897z" fill-rule="evenodd"/><path fill="#3c78d8" d="m520.4833 74.545364c1.8237305 0 3.2940063 0.3887787 4.4108887 1.1663437c1.1309814 0.777565 2.0004272 1.8873596 2.6083984 3.3293839c0.60791016 1.4278946 0.99664307 3.1880112 1.1663208 5.280365c0.18377686 2.0782166 0.2756958 4.4179764 0.2756958 7.0192795c0 2.601303 -0.113098145 4.9269257 -0.33929443 6.97686c-0.21209717 2.0358047 -0.6008911 3.7535095 -1.1663818 5.1531296c-0.5654907 1.3854752 -1.4137573 2.4457932 -2.5447388 3.1809387c-1.1168823 0.73514557 -2.6366577 1.1027222 -4.559326 1.1027222c-1.9085693 0 -3.449585 -0.4099884 -4.622986 -1.2299576c-1.1734009 -0.8199768 -2.064087 -1.9651184 -2.671997 -3.4354172c-0.60791016 -1.4844437 -1.0178833 -3.2233582 -1.22995 -5.2167435c-0.21206665 -2.0075302 -0.31811523 -4.1847076 -0.31811523 -6.5315323c0 -2.6861343 0.106048584 -5.0682983 0.31811523 -7.146515c0.21206665 -2.0923538 0.643219 -3.852478 1.2935486 -5.280365c0.6503296 -1.4420242 1.5621948 -2.5306091 2.7356567 -3.2657623c1.1734009 -0.7351532 2.7214355 -1.1027298 4.644165 -1.1027298zm-6.929199 62.360153l11.615784 1.4707336c2.770935 0.26860046 4.8915405 0.7068634 6.3618774 1.3147888c1.484436 0.60791016 2.5305786 1.4066772 3.1384888 2.3963013c0.6079712 1.0037689 0.91192627 2.2832184 0.91192627 3.8383331c0 2.5306244 -1.1946411 4.3826447 -3.5838623 5.5560455c-2.3892822 1.1734161 -6.0579224 1.7601318 -11.0061035 1.7601318c-5.032959 0 -8.531982 -0.565506 -10.49707 -1.6965027c-1.9509888 -1.131012 -2.9264832 -2.8275146 -2.9264832 -5.089508c0 -1.3854828 0.3463745 -2.6649323 1.0391235 -3.8383331c0.70687866 -1.1734161 1.5763245 -2.304428 2.608368 -3.3930054c0.7571106 -0.7878113 1.536438 -1.560791 2.3379517 -2.318985zm34.666992 -72.920876c-2.770935 1.215828 -5.3722534 2.735611 -7.803894 4.559349c-1.9225464 1.4419174 -3.3060303 2.6938248 -4.1504517 3.7557297l0 0c-1.0906372 -1.487648 -2.3579712 -2.8031769 -3.801941 -3.9465866c-3.1243896 -2.4740677 -7.1677246 -3.7110977 -12.129944 -3.7110977c-4.7785034 0 -8.793549 1.0178986 -12.045197 3.0537033c-3.2516174 2.0358047 -5.704468 5.0329514 -7.3585815 8.991463c-1.6540833 3.9443665 -2.4811096 8.828873 -2.4811096 14.653534c0 5.131912 0.75634766 9.698334 2.2690735 13.699249c1.3652039 3.5647125 3.4029236 6.4399796 6.1131287 8.625778l0 0c-2.217926 2.0576782 -4.036499 3.953827 -5.4557495 5.6884537c-1.781311 2.1771774 -2.671997 4.827965 -2.671997 7.9523544c0 2.078209 0.8270569 3.9867783 2.4811401 5.7257004c1.2262878 1.289154 2.93042 2.2208862 5.1124268 2.7951965l0 0c-1.4915771 0.6875305 -2.9341736 1.5371246 -4.3277893 2.5487823c-1.9085693 1.3854828 -3.4707642 3.0536957 -4.6865845 5.0046844c-1.2158203 1.9651031 -1.8237305 4.2483063 -1.8237305 6.8496246c0 3.3930054 1.0603027 6.128601 3.1809387 8.206818c2.1347656 2.0923462 5.0470886 3.6333466 8.736969 4.6229706c3.689911 1.0037689 7.839264 1.5056458 12.44809 1.5056458c6.0791016 0 11.069702 -0.7210083 14.971619 -2.1630402c3.9160767 -1.427887 6.8496094 -3.5767975 8.800598 -6.446701c1.9509888 -2.855774 2.9264526 -6.3689423 2.9264526 -10.53952c0 -5.640869 -1.4349365 -9.981079 -4.3048706 -13.02066c-2.855774 -3.0536957 -7.2384033 -4.835022 -13.147888 -5.3439713l-12.638916 -1.1875534c-2.177185 -0.16965485 -3.7676392 -0.55843353 -4.7714233 -1.1663437c-0.989624 -0.60791016 -1.484436 -1.3925476 -1.484436 -2.353897c0 -1.215828 0.38879395 -2.4528656 1.1663513 -3.7110977c0.462677 -0.73534393 0.8794861 -1.3741226 1.2504578 -1.9163208l0 0c2.2802734 0.71204376 4.8605957 1.0680695 7.741028 1.0680695c5.3015747 0 9.493347 -1.0815201 12.575317 -3.2445602c3.0819702 -2.1771774 5.2944946 -5.237953 6.637512 -9.18232c1.3572388 -3.9585037 2.0358276 -8.496643 2.0358276 -13.614426c0 -4.962265 -0.7421875 -9.479202 -2.2266235 -13.550804c-0.03515625 -0.09755707 -0.070739746 -0.19464111 -0.10675049 -0.29128265l0 0c0.36499023 -0.32022095 1.0932617 -0.7250061 2.1849365 -1.2143631c1.6541138 -0.7351532 3.4990234 -1.4491043 5.534851 -2.141838c2.0499268 -0.70687103 3.6828003 -1.1875534 4.8986206 -1.4420242l-3.647461 -9.118698z" fill-rule="evenodd"/><path fill="#3c78d8" d="m611.023 46.383434c5.032959 0 8.722839 0.78463364 11.069641 2.353897c2.3468628 1.5692635 3.8666382 4.0504 4.559387 7.4434013c0.70684814 3.3788643 1.0603027 7.8039093 1.0603027 13.275124l0 34.26934c0 5.640869 -0.24035645 10.461769 -0.7210083 14.462677c-0.4807129 3.9867783 -1.8520508 7.026352 -4.1140137 9.118698c-2.262024 2.078209 -6.0791626 3.1173172 -11.451416 3.1173172l-8.355286 0l0 -84.04045zm-22.669556 -10.942436l0 105.543625l24.111572 0c7.3797607 0 13.260986 -1.3218536 17.643616 -3.9655762c4.3826294 -2.6578522 7.5494385 -6.5456696 9.500427 -11.6634445c1.9650879 -5.13192 2.9476318 -11.430183 2.9476318 -18.89479l0 -38.82869c0 -7.125305 -0.98254395 -13.077198 -2.9476318 -17.855679c-1.9509888 -4.7784805 -5.209717 -8.362343 -9.776123 -10.751583c-4.552246 -2.3892403 -10.737427 -3.5838585 -18.555481 -3.5838585z" fill-rule="evenodd"/><path fill="#3c78d8" d="m676.56915 74.92708c2.6861572 0 4.5734863 0.80583954 5.6621094 2.4175186c1.088562 1.5975342 1.7388916 3.6616135 1.9509888 6.19223c0.21203613 2.5164795 0.3180542 5.202606 0.3180542 8.05838l0 23.581375c0 2.7850952 -0.10601807 5.464157 -0.3180542 8.037178c-0.21209717 2.5588913 -0.86242676 4.6229706 -1.9509888 6.19223c-1.088623 1.55513 -2.9759521 2.3326874 -5.6621094 2.3326874c-2.7002563 0 -4.6158447 -0.7775574 -5.746887 -2.3326874c-1.1309814 -1.5692596 -1.8025513 -3.633339 -2.0145874 -6.19223c-0.21203613 -2.5730286 -0.31811523 -5.2520905 -0.31811523 -8.037178l0 -23.581375c0 -2.855774 0.1060791 -5.5419083 0.31811523 -8.05838c0.21203613 -2.5306168 0.88360596 -4.5946884 2.0145874 -6.19223c1.1309814 -1.6116791 3.0466309 -2.4175186 5.746887 -2.4175186zm0 -10.285042c-5.5701904 0 -9.959839 1.1309967 -13.169067 3.3930054c-3.2092285 2.2478638 -5.4924316 5.457077 -6.8496094 9.627647c-1.3430786 4.1705704 -2.0146484 9.076286 -2.0146484 14.717155l0 21.884872c0 5.654999 0.6715698 10.567787 2.0146484 14.738365c1.3571777 4.1705627 3.6403809 7.386841 6.8496094 9.6488495c3.2092285 2.2478638 7.598877 3.3717957 13.169067 3.3717957c5.5560913 0 9.91748 -1.1239319 13.08429 -3.3717957c3.166809 -2.2620087 5.421753 -5.4782867 6.7648315 -9.6488495c1.3571777 -4.1705704 2.0357666 -9.083351 2.0357666 -14.738365l0 -21.884872c0 -5.640869 -0.67858887 -10.546585 -2.0357666 -14.717155c-1.3430786 -4.1705704 -3.5980225 -7.3797836 -6.7648315 -9.627647c-3.166809 -2.2620087 -7.5281982 -3.3930054 -13.08429 -3.3930054z" fill-rule="evenodd"/><path fill="#3c78d8" d="m731.81573 64.64204c-6.0932617 0 -10.723267 1.1946182 -13.890076 3.5838623c-3.166809 2.3892365 -5.315735 5.817589 -6.4467163 10.285042c-1.1309814 4.467453 -1.6965332 9.875053 -1.6965332 16.222794l0 17.325531c0 5.994301 0.5443115 11.253456 1.6328735 15.777466c1.088623 4.509857 3.2163086 8.001831 6.3831177 10.475891c3.166809 2.4740753 7.8392334 3.7111053 14.017334 3.7111053c5.3722534 0 9.556946 -0.95428467 12.554138 -2.862854c2.9971313 -1.9085541 5.0823975 -4.6865845 6.2558594 -8.334061c1.1734009 -3.6474762 1.7600708 -7.994766 1.7600708 -13.041855l0 -5.1955414l-12.638916 0l0 6.1074066c0 2.5306244 -0.15551758 4.792618 -0.46655273 6.7860107c-0.296875 1.993393 -0.989624 3.534378 -2.078186 4.6229706c-1.0744629 1.0885925 -2.7850952 1.6328735 -5.131958 1.6328735c-3.1243286 0 -5.2944336 -1.0815125 -6.510315 -3.2445526c-1.2158203 -2.1771774 -1.8237305 -6.482048 -1.8237305 -12.914619l0 -23.708618c0 -4.255394 0.19085693 -7.620125 0.5725708 -10.094185c0.39587402 -2.4881973 1.2017212 -4.2483215 2.4175415 -5.2803574c1.2158203 -1.0461807 2.954712 -1.5692673 5.216736 -1.5692673c2.078186 0 3.6828003 0.43826294 4.8137817 1.3147888c1.1310425 0.8623886 1.9085693 2.2478638 2.3327026 4.156433c0.43829346 1.9085617 0.65740967 4.5169296 0.65740967 7.8251114l0 4.559349l12.638916 0l0 -4.4321136c0 -5.2167435 -0.5654907 -9.578163 -1.6964722 -13.084267c-1.1168823 -3.5202408 -3.1738892 -6.171028 -6.1710205 -7.9523544c-2.9971313 -1.7813263 -7.2313232 -2.6719894 -12.702576 -2.6719894z" fill-rule="evenodd"/><path fill="#3c78d8" d="m782.2269 64.64204c-3.9019165 0 -7.309082 0.7139435 -10.221436 2.1418304c-2.9122925 1.427887 -5.1743164 3.5131683 -6.7859497 6.2558517c-1.5975342 2.7285461 -2.3963623 6.093277 -2.3963623 10.094185c0 4.425049 0.89068604 8.030113 2.671997 10.815201c1.7813721 2.7850876 3.9726562 5.301567 6.5739746 7.549431l12.893433 11.090881c2.177124 1.8237457 3.73938 3.605072 4.6865845 5.3439865c0.9613037 1.7247772 1.4420166 3.6757584 1.4420166 5.852928c0 2.4316483 -0.6503296 4.3684998 -1.9509888 5.8105164c-1.3006592 1.4279022 -3.2162476 2.1418304 -5.746887 2.1418304c-3.2092285 0 -5.640869 -1.1946106 -7.294983 -3.583847c-1.6399536 -2.389244 -2.8133545 -5.9731064 -3.5202637 -10.751587l-11.578613 3.5202408c0.50897217 6.333603 2.6295776 11.437248 6.3618774 15.310936c3.74646 3.8595428 8.70166 5.7893066 14.865601 5.7893066c4.1705933 0 7.818054 -0.7139435 10.942444 -2.1418304c3.1243896 -1.4420319 5.5560303 -3.5909424 7.294983 -6.4467163c1.7388916 -2.8699188 2.6083374 -6.432564 2.6083374 -10.687958c0 -3.209221 -0.5230713 -6.0296555 -1.5692749 -8.461304c-1.0320435 -2.4457932 -2.3538818 -4.622963 -3.9655151 -6.5315323c-1.6116943 -1.9085617 -3.3294067 -3.689888 -5.153137 -5.343979l-13.2751465 -12.236015c-1.3995972 -1.215828 -2.382141 -2.452858 -2.9476929 -3.7110977c-0.5654907 -1.2582397 -0.84820557 -2.544754 -0.84820557 -3.8595428c0 -2.0782166 0.6715088 -3.87368 2.0145874 -5.3863983c1.3571777 -1.5268478 3.166809 -2.2902756 5.428772 -2.2902756c2.078247 0 3.7677002 0.54429626 5.0682983 1.6328812c1.3006592 1.0885925 2.2973633 2.6083755 2.9901123 4.559349c0.70684814 1.9509811 1.2299805 4.2271194 1.5692749 6.8284225l9.90332 -3.4990387c-0.5230713 -5.4853516 -2.4387207 -10.157799 -5.746887 -14.017342c-3.2940674 -3.8595428 -8.065491 -5.7893143 -14.31427 -5.7893143z" fill-rule="evenodd"/><path stroke="#3c78d8" stroke-width="1.0" stroke-linejoin="round" stroke-linecap="butt" d="m159.1767 35.440998l-1.9509735 105.543625l11.981537 0l1.1663513 -76.61826l17.72844 76.61826l8.334076 0l17.855682 -76.61826l1.166336 76.61826l11.854309 0l-1.9509735 -105.543625l-14.335449 0l-18.746338 85.609726l-18.64032 -85.609726z" fill-rule="evenodd"/><path stroke="#3c78d8" stroke-width="1.0" stroke-linejoin="round" stroke-linecap="butt" d="m263.02463 74.92708c2.6861267 0 4.5734863 0.80583954 5.662079 2.4175186c1.088562 1.5975342 1.7389221 3.6616135 1.9509583 6.19223c0.21206665 2.5164795 0.31811523 5.202606 0.31811523 8.05838l0 23.581375c0 2.7850952 -0.106048584 5.464157 -0.31811523 8.037178c-0.21203613 2.5588913 -0.86239624 4.6229706 -1.9509583 6.19223c-1.0885925 1.55513 -2.9759521 2.3326874 -5.662079 2.3326874c-2.7002563 0 -4.6158752 -0.7775574 -5.746887 -2.3326874c-1.131012 -1.5692596 -1.8025513 -3.633339 -2.0146027 -6.19223c-0.21206665 -2.5730286 -0.31809998 -5.2520905 -0.31809998 -8.037178l0 -23.581375c0 -2.855774 0.106033325 -5.5419083 0.31809998 -8.05838c0.21205139 -2.5306168 0.8835907 -4.5946884 2.0146027 -6.19223c1.1309814 -1.6116791 3.0466003 -2.4175186 5.746887 -2.4175186zm0 -10.285042c-5.5701904 0 -9.959885 1.1309967 -13.169098 3.3930054c-3.2092133 2.2478638 -5.4924164 5.457077 -6.8496246 9.627647c-1.3430634 4.1705704 -2.0146027 9.076286 -2.0146027 14.717155l0 21.884872c0 5.654999 0.6715393 10.567787 2.0146027 14.738365c1.3572083 4.1705627 3.6404114 7.386841 6.8496246 9.6488495c3.2092133 2.2478638 7.5989075 3.3717957 13.169098 3.3717957c5.5560303 0 9.91748 -1.1239319 13.084259 -3.3717957c3.166809 -2.2620087 5.4217224 -5.4782867 6.764801 -9.6488495c1.3572083 -4.1705704 2.0358276 -9.083351 2.0358276 -14.738365l0 -21.884872c0 -5.640869 -0.6786194 -10.546585 -2.0358276 -14.717155c-1.3430481 -4.1705704 -3.5979614 -7.3797836 -6.764801 -9.627647c-3.1667786 -2.2620087 -7.5282288 -3.3930054 -13.084259 -3.3930054z" fill-rule="evenodd"/><path stroke="#3c78d8" stroke-width="1.0" stroke-linejoin="round" stroke-linecap="butt" d="m318.39844 75.58447c1.7389221 0 3.3435059 0.3251648 4.8138123 0.97548676c1.4703064 0.6503296 2.813385 1.4066849 4.0292053 2.2690735l0 49.389412c-1.4703064 0.9472046 -2.9476929 1.6611481 -4.432129 2.1418304c-1.4703064 0.4806671 -2.855774 0.7210083 -4.156433 0.7210083c-2.4316406 0 -4.255371 -0.7987671 -5.4711914 -2.3963013c-1.2158508 -1.6116791 -2.0216675 -3.8312607 -2.4175415 -6.6587677c-0.38171387 -2.827507 -0.5725708 -5.973114 -0.5725708 -9.436798l0 -21.24868c0 -4.3402176 0.55844116 -8.051315 1.6753235 -11.133293c1.1309814 -3.0819778 3.3081665 -4.6229706 6.5315247 -4.6229706zm8.843018 -40.143475l0 35.053967c-1.6399536 -1.6540833 -3.5061035 -3.0395584 -5.5984497 -4.1564255c-2.0782166 -1.1310043 -4.37558 -1.6965027 -6.8920593 -1.6965027c-5.1319275 0 -9.026794 1.4773712 -11.684662 4.4321136c-2.6437073 2.9406052 -4.4462585 6.8708267 -5.407593 11.790688c-0.9472046 4.905716 -1.4208069 10.22142 -1.4208069 15.947113l0 14.58992c0 11.126221 1.5621948 19.014954 4.6865845 23.666199c3.1385193 4.6371 7.8746033 6.955658 14.208191 6.955658c2.5164795 0 4.7502136 -0.53723145 6.701172 -1.6116791c1.9651184 -1.0885925 3.7676697 -2.5023346 5.4076233 -4.2412567l0 4.8138275l13.953705 0l0 -105.543625z" fill-rule="evenodd"/><path stroke="#3c78d8" stroke-width="1.0" stroke-linejoin="round" stroke-linecap="butt" d="m375.98718 75.58447c1.7388916 0 3.3435059 0.3251648 4.8138123 0.97548676c1.4703064 0.6503296 2.813385 1.4066849 4.0292053 2.2690735l0 49.389412c-1.4703064 0.9472046 -2.9476929 1.6611481 -4.432129 2.1418304c-1.4703064 0.4806671 -2.855774 0.7210083 -4.156433 0.7210083c-2.4316406 0 -4.255371 -0.7987671 -5.471222 -2.3963013c-1.2158203 -1.6116791 -2.0216675 -3.8312607 -2.417511 -6.6587677c-0.38171387 -2.827507 -0.5725708 -5.973114 -0.5725708 -9.436798l0 -21.24868c0 -4.3402176 0.55844116 -8.051315 1.675293 -11.133293c1.131012 -3.0819778 3.308197 -4.6229706 6.531555 -4.6229706zm8.843018 -40.143475l0 35.053967c-1.6399536 -1.6540833 -3.506134 -3.0395584 -5.59848 -4.1564255c-2.0782166 -1.1310043 -4.3755493 -1.6965027 -6.892029 -1.6965027c-5.1319275 0 -9.026794 1.4773712 -11.684662 4.4321136c-2.6437073 2.9406052 -4.446228 6.8708267 -5.407593 11.790688c-0.9472046 4.905716 -1.4208069 10.22142 -1.4208069 15.947113l0 14.58992c0 11.126221 1.5621643 19.014954 4.6865845 23.666199c3.1385193 4.6371 7.8746033 6.955658 14.208191 6.955658c2.5164795 0 4.7502136 -0.53723145 6.701172 -1.6116791c1.9651184 -1.0885925 3.7676697 -2.5023346 5.4076233 -4.2412567l0 4.8138275l13.953705 0l0 -105.543625z" fill-rule="evenodd"/><path stroke="#3c78d8" stroke-width="1.0" stroke-linejoin="round" stroke-linecap="butt" d="m413.76926 39.873108l0 14.589916l13.932526 0l0 -14.589916zm0 25.808037l0 75.303474l13.932526 0l0 -75.303474z" fill-rule="evenodd"/><path stroke="#3c78d8" stroke-width="1.0" stroke-linejoin="round" stroke-linecap="butt" d="m474.99124 64.64204c-3.647461 0 -6.9909973 0.8270416 -10.030548 2.4811325c-3.0395813 1.6399536 -5.8175964 3.633339 -8.334076 5.980171l0 -7.4221954l-13.932526 0l0 75.303474l13.932526 0l0 -60.713562c1.5692749 -1.3006439 3.1950684 -2.4033737 4.8774414 -3.3081741c1.6965027 -0.9189377 3.3293762 -1.3784103 4.898651 -1.3784103c2.4316406 0 4.036255 0.742218 4.8138123 2.2266617c0.7917175 1.4702988 1.187561 3.5485153 1.187561 6.234642l0 56.938843l13.932526 0l0 -60.968033c0 -2.431656 -0.3251648 -4.8209 -0.9754944 -7.1677246c-0.6503296 -2.3468246 -1.7813416 -4.297806 -3.3930054 -5.852928c-1.5975342 -1.5692673 -3.9231567 -2.353897 -6.9768677 -2.353897z" fill-rule="evenodd"/><path stroke="#3c78d8" stroke-width="1.0" stroke-linejoin="round" stroke-linecap="butt" d="m520.4833 74.545364c1.8237305 0 3.2940063 0.3887787 4.4108887 1.1663437c1.1309814 0.777565 2.0004272 1.8873596 2.6083984 3.3293839c0.60791016 1.4278946 0.99664307 3.1880112 1.1663208 5.280365c0.18377686 2.0782166 0.2756958 4.4179764 0.2756958 7.0192795c0 2.601303 -0.113098145 4.9269257 -0.33929443 6.97686c-0.21209717 2.0358047 -0.6008911 3.7535095 -1.1663818 5.1531296c-0.5654907 1.3854752 -1.4137573 2.4457932 -2.5447388 3.1809387c-1.1168823 0.73514557 -2.6366577 1.1027222 -4.559326 1.1027222c-1.9085693 0 -3.449585 -0.4099884 -4.622986 -1.2299576c-1.1734009 -0.8199768 -2.064087 -1.9651184 -2.671997 -3.4354172c-0.60791016 -1.4844437 -1.0178833 -3.2233582 -1.22995 -5.2167435c-0.21206665 -2.0075302 -0.31811523 -4.1847076 -0.31811523 -6.5315323c0 -2.6861343 0.106048584 -5.0682983 0.31811523 -7.146515c0.21206665 -2.0923538 0.643219 -3.852478 1.2935486 -5.280365c0.6503296 -1.4420242 1.5621948 -2.5306091 2.7356567 -3.2657623c1.1734009 -0.7351532 2.7214355 -1.1027298 4.644165 -1.1027298zm-6.929199 62.360153l11.615784 1.4707336c2.770935 0.26860046 4.8915405 0.7068634 6.3618774 1.3147888c1.484436 0.60791016 2.5305786 1.4066772 3.1384888 2.3963013c0.6079712 1.0037689 0.91192627 2.2832184 0.91192627 3.8383331c0 2.5306244 -1.1946411 4.3826447 -3.5838623 5.5560455c-2.3892822 1.1734161 -6.0579224 1.7601318 -11.0061035 1.7601318c-5.032959 0 -8.531982 -0.565506 -10.49707 -1.6965027c-1.9509888 -1.131012 -2.9264832 -2.8275146 -2.9264832 -5.089508c0 -1.3854828 0.3463745 -2.6649323 1.0391235 -3.8383331c0.70687866 -1.1734161 1.5763245 -2.304428 2.608368 -3.3930054c0.7571106 -0.7878113 1.536438 -1.560791 2.3379517 -2.318985zm34.666992 -72.920876c-2.770935 1.215828 -5.3722534 2.735611 -7.803894 4.559349c-1.9225464 1.4419174 -3.3060303 2.6938248 -4.1504517 3.7557297l0 0c-1.0906372 -1.487648 -2.3579712 -2.8031769 -3.801941 -3.9465866c-3.1243896 -2.4740677 -7.1677246 -3.7110977 -12.129944 -3.7110977c-4.7785034 0 -8.793549 1.0178986 -12.045197 3.0537033c-3.2516174 2.0358047 -5.704468 5.0329514 -7.3585815 8.991463c-1.6540833 3.9443665 -2.4811096 8.828873 -2.4811096 14.653534c0 5.131912 0.75634766 9.698334 2.2690735 13.699249c1.3652039 3.5647125 3.4029236 6.4399796 6.1131287 8.625778l0 0c-2.217926 2.0576782 -4.036499 3.953827 -5.4557495 5.6884537c-1.781311 2.1771774 -2.671997 4.827965 -2.671997 7.9523544c0 2.078209 0.8270569 3.9867783 2.4811401 5.7257004c1.2262878 1.289154 2.93042 2.2208862 5.1124268 2.7951965l0 0c-1.4915771 0.6875305 -2.9341736 1.5371246 -4.3277893 2.5487823c-1.9085693 1.3854828 -3.4707642 3.0536957 -4.6865845 5.0046844c-1.2158203 1.9651031 -1.8237305 4.2483063 -1.8237305 6.8496246c0 3.3930054 1.0603027 6.128601 3.1809387 8.206818c2.1347656 2.0923462 5.0470886 3.6333466 8.736969 4.6229706c3.689911 1.0037689 7.839264 1.5056458 12.44809 1.5056458c6.0791016 0 11.069702 -0.7210083 14.971619 -2.1630402c3.9160767 -1.427887 6.8496094 -3.5767975 8.800598 -6.446701c1.9509888 -2.855774 2.9264526 -6.3689423 2.9264526 -10.53952c0 -5.640869 -1.4349365 -9.981079 -4.3048706 -13.02066c-2.855774 -3.0536957 -7.2384033 -4.835022 -13.147888 -5.3439713l-12.638916 -1.1875534c-2.177185 -0.16965485 -3.7676392 -0.55843353 -4.7714233 -1.1663437c-0.989624 -0.60791016 -1.484436 -1.3925476 -1.484436 -2.353897c0 -1.215828 0.38879395 -2.4528656 1.1663513 -3.7110977c0.462677 -0.73534393 0.8794861 -1.3741226 1.2504578 -1.9163208l0 0c2.2802734 0.71204376 4.8605957 1.0680695 7.741028 1.0680695c5.3015747 0 9.493347 -1.0815201 12.575317 -3.2445602c3.0819702 -2.1771774 5.2944946 -5.237953 6.637512 -9.18232c1.3572388 -3.9585037 2.0358276 -8.496643 2.0358276 -13.614426c0 -4.962265 -0.7421875 -9.479202 -2.2266235 -13.550804c-0.03515625 -0.09755707 -0.070739746 -0.19464111 -0.10675049 -0.29128265l0 0c0.36499023 -0.32022095 1.0932617 -0.7250061 2.1849365 -1.2143631c1.6541138 -0.7351532 3.4990234 -1.4491043 5.534851 -2.141838c2.0499268 -0.70687103 3.6828003 -1.1875534 4.8986206 -1.4420242l-3.647461 -9.118698z" fill-rule="evenodd"/><path stroke="#3c78d8" stroke-width="1.0" stroke-linejoin="round" stroke-linecap="butt" d="m611.023 46.383434c5.032959 0 8.722839 0.78463364 11.069641 2.353897c2.3468628 1.5692635 3.8666382 4.0504 4.559387 7.4434013c0.70684814 3.3788643 1.0603027 7.8039093 1.0603027 13.275124l0 34.26934c0 5.640869 -0.24035645 10.461769 -0.7210083 14.462677c-0.4807129 3.9867783 -1.8520508 7.026352 -4.1140137 9.118698c-2.262024 2.078209 -6.0791626 3.1173172 -11.451416 3.1173172l-8.355286 0l0 -84.04045zm-22.669556 -10.942436l0 105.543625l24.111572 0c7.3797607 0 13.260986 -1.3218536 17.643616 -3.9655762c4.3826294 -2.6578522 7.5494385 -6.5456696 9.500427 -11.6634445c1.9650879 -5.13192 2.9476318 -11.430183 2.9476318 -18.89479l0 -38.82869c0 -7.125305 -0.98254395 -13.077198 -2.9476318 -17.855679c-1.9509888 -4.7784805 -5.209717 -8.362343 -9.776123 -10.751583c-4.552246 -2.3892403 -10.737427 -3.5838585 -18.555481 -3.5838585z" fill-rule="evenodd"/><path stroke="#3c78d8" stroke-width="1.0" stroke-linejoin="round" stroke-linecap="butt" d="m676.56915 74.92708c2.6861572 0 4.5734863 0.80583954 5.6621094 2.4175186c1.088562 1.5975342 1.7388916 3.6616135 1.9509888 6.19223c0.21203613 2.5164795 0.3180542 5.202606 0.3180542 8.05838l0 23.581375c0 2.7850952 -0.10601807 5.464157 -0.3180542 8.037178c-0.21209717 2.5588913 -0.86242676 4.6229706 -1.9509888 6.19223c-1.088623 1.55513 -2.9759521 2.3326874 -5.6621094 2.3326874c-2.7002563 0 -4.6158447 -0.7775574 -5.746887 -2.3326874c-1.1309814 -1.5692596 -1.8025513 -3.633339 -2.0145874 -6.19223c-0.21203613 -2.5730286 -0.31811523 -5.2520905 -0.31811523 -8.037178l0 -23.581375c0 -2.855774 0.1060791 -5.5419083 0.31811523 -8.05838c0.21203613 -2.5306168 0.88360596 -4.5946884 2.0145874 -6.19223c1.1309814 -1.6116791 3.0466309 -2.4175186 5.746887 -2.4175186zm0 -10.285042c-5.5701904 0 -9.959839 1.1309967 -13.169067 3.3930054c-3.2092285 2.2478638 -5.4924316 5.457077 -6.8496094 9.627647c-1.3430786 4.1705704 -2.0146484 9.076286 -2.0146484 14.717155l0 21.884872c0 5.654999 0.6715698 10.567787 2.0146484 14.738365c1.3571777 4.1705627 3.6403809 7.386841 6.8496094 9.6488495c3.2092285 2.2478638 7.598877 3.3717957 13.169067 3.3717957c5.5560913 0 9.91748 -1.1239319 13.08429 -3.3717957c3.166809 -2.2620087 5.421753 -5.4782867 6.7648315 -9.6488495c1.3571777 -4.1705704 2.0357666 -9.083351 2.0357666 -14.738365l0 -21.884872c0 -5.640869 -0.67858887 -10.546585 -2.0357666 -14.717155c-1.3430786 -4.1705704 -3.5980225 -7.3797836 -6.7648315 -9.627647c-3.166809 -2.2620087 -7.5281982 -3.3930054 -13.08429 -3.3930054z" fill-rule="evenodd"/><path stroke="#3c78d8" stroke-width="1.0" stroke-linejoin="round" stroke-linecap="butt" d="m731.81573 64.64204c-6.0932617 0 -10.723267 1.1946182 -13.890076 3.5838623c-3.166809 2.3892365 -5.315735 5.817589 -6.4467163 10.285042c-1.1309814 4.467453 -1.6965332 9.875053 -1.6965332 16.222794l0 17.325531c0 5.994301 0.5443115 11.253456 1.6328735 15.777466c1.088623 4.509857 3.2163086 8.001831 6.3831177 10.475891c3.166809 2.4740753 7.8392334 3.7111053 14.017334 3.7111053c5.3722534 0 9.556946 -0.95428467 12.554138 -2.862854c2.9971313 -1.9085541 5.0823975 -4.6865845 6.2558594 -8.334061c1.1734009 -3.6474762 1.7600708 -7.994766 1.7600708 -13.041855l0 -5.1955414l-12.638916 0l0 6.1074066c0 2.5306244 -0.15551758 4.792618 -0.46655273 6.7860107c-0.296875 1.993393 -0.989624 3.534378 -2.078186 4.6229706c-1.0744629 1.0885925 -2.7850952 1.6328735 -5.131958 1.6328735c-3.1243286 0 -5.2944336 -1.0815125 -6.510315 -3.2445526c-1.2158203 -2.1771774 -1.8237305 -6.482048 -1.8237305 -12.914619l0 -23.708618c0 -4.255394 0.19085693 -7.620125 0.5725708 -10.094185c0.39587402 -2.4881973 1.2017212 -4.2483215 2.4175415 -5.2803574c1.2158203 -1.0461807 2.954712 -1.5692673 5.216736 -1.5692673c2.078186 0 3.6828003 0.43826294 4.8137817 1.3147888c1.1310425 0.8623886 1.9085693 2.2478638 2.3327026 4.156433c0.43829346 1.9085617 0.65740967 4.5169296 0.65740967 7.8251114l0 4.559349l12.638916 0l0 -4.4321136c0 -5.2167435 -0.5654907 -9.578163 -1.6964722 -13.084267c-1.1168823 -3.5202408 -3.1738892 -6.171028 -6.1710205 -7.9523544c-2.9971313 -1.7813263 -7.2313232 -2.6719894 -12.702576 -2.6719894z" fill-rule="evenodd"/><path stroke="#3c78d8" stroke-width="1.0" stroke-linejoin="round" stroke-linecap="butt" d="m782.2269 64.64204c-3.9019165 0 -7.309082 0.7139435 -10.221436 2.1418304c-2.9122925 1.427887 -5.1743164 3.5131683 -6.7859497 6.2558517c-1.5975342 2.7285461 -2.3963623 6.093277 -2.3963623 10.094185c0 4.425049 0.89068604 8.030113 2.671997 10.815201c1.7813721 2.7850876 3.9726562 5.301567 6.5739746 7.549431l12.893433 11.090881c2.177124 1.8237457 3.73938 3.605072 4.6865845 5.3439865c0.9613037 1.7247772 1.4420166 3.6757584 1.4420166 5.852928c0 2.4316483 -0.6503296 4.3684998 -1.9509888 5.8105164c-1.3006592 1.4279022 -3.2162476 2.1418304 -5.746887 2.1418304c-3.2092285 0 -5.640869 -1.1946106 -7.294983 -3.583847c-1.6399536 -2.389244 -2.8133545 -5.9731064 -3.5202637 -10.751587l-11.578613 3.5202408c0.50897217 6.333603 2.6295776 11.437248 6.3618774 15.310936c3.74646 3.8595428 8.70166 5.7893066 14.865601 5.7893066c4.1705933 0 7.818054 -0.7139435 10.942444 -2.1418304c3.1243896 -1.4420319 5.5560303 -3.5909424 7.294983 -6.4467163c1.7388916 -2.8699188 2.6083374 -6.432564 2.6083374 -10.687958c0 -3.209221 -0.5230713 -6.0296555 -1.5692749 -8.461304c-1.0320435 -2.4457932 -2.3538818 -4.622963 -3.9655151 -6.5315323c-1.6116943 -1.9085617 -3.3294067 -3.689888 -5.153137 -5.343979l-13.2751465 -12.236015c-1.3995972 -1.215828 -2.382141 -2.452858 -2.9476929 -3.7110977c-0.5654907 -1.2582397 -0.84820557 -2.544754 -0.84820557 -3.8595428c0 -2.0782166 0.6715088 -3.87368 2.0145874 -5.3863983c1.3571777 -1.5268478 3.166809 -2.2902756 5.428772 -2.2902756c2.078247 0 3.7677002 0.54429626 5.0682983 1.6328812c1.3006592 1.0885925 2.2973633 2.6083755 2.9901123 4.559349c0.70684814 1.9509811 1.2299805 4.2271194 1.5692749 6.8284225l9.90332 -3.4990387c-0.5230713 -5.4853516 -2.4387207 -10.157799 -5.746887 -14.017342c-3.2940674 -3.8595428 -8.065491 -5.7893143 -14.31427 -5.7893143z" fill-rule="evenodd"/><path fill="#000000" fill-opacity="0.0" d="m153.17586 147.61942l650.80316 0" fill-rule="evenodd"/><path stroke="#3c78d8" stroke-width="3.0" stroke-linejoin="round" stroke-linecap="butt" d="m153.17586 147.61942l650.80316 0" fill-rule="evenodd"/></g></svg>